<svg width="148" height="148" viewBox="0 0 148 148" fill="none" xmlns="http://www.w3.org/2000/svg">
<path d="M74 7.39999C82.746 7.39999 91.4064 9.12265 99.4867 12.4696C107.567 15.8166 114.909 20.7223 121.093 26.9067C127.278 33.0911 132.183 40.433 135.53 48.5133C138.877 56.5936 140.6 65.254 140.6 74C140.6 82.746 138.877 91.4064 135.53 99.4867C132.183 107.567 127.278 114.909 121.093 121.093C114.909 127.278 107.567 132.183 99.4867 135.53C91.4064 138.877 82.746 140.6 74 140.6C65.2539 140.6 56.5935 138.877 48.5133 135.53C40.433 132.183 33.091 127.278 26.9067 121.093C20.7223 114.909 15.8166 107.567 12.4696 99.4867C9.12265 91.4064 7.39999 82.746 7.39999 74C7.4 65.2539 9.12266 56.5935 12.4696 48.5132C15.8166 40.433 20.7223 33.091 26.9067 26.9067C33.0911 20.7223 40.433 15.8166 48.5133 12.4696C56.5936 9.12264 65.254 7.39999 74 7.39999L74 7.39999Z" stroke="#EAECF0" stroke-width="14.8" stroke-linecap="round" stroke-linejoin="round"/>
</svg>
