<svg width="64" height="36" viewBox="0 0 64 36" fill="none" xmlns="http://www.w3.org/2000/svg">
<g clip-path="url(#clip0_0_7768)">
<path d="M21.9433 0C18.3332 0 14.8709 1.43413 12.3181 3.98692L3.98692 12.3181C1.43413 14.8709 0 18.3332 0 21.9433C0 29.4612 6.09439 35.5556 13.6122 35.5556C17.2224 35.5556 20.6847 34.1214 23.2375 31.5686L29.0002 25.8059C29.0002 25.8057 29.0003 25.806 29.0002 25.8059L45.7908 9.01523C47.01 7.79604 48.6636 7.11111 50.3878 7.11111C53.2744 7.11111 55.7217 8.99249 56.5702 11.5959L61.8693 6.29684C59.4519 2.51063 55.213 0 50.3878 0C46.7776 0 43.3153 1.43413 40.7625 3.98692L18.2092 26.5403C16.99 27.7595 15.3364 28.4444 13.6122 28.4444C10.0217 28.4444 7.11111 25.5339 7.11111 21.9433C7.11111 20.2191 7.79604 18.5656 9.01523 17.3464L17.3464 9.01523C18.5656 7.79604 20.2191 7.11111 21.9433 7.11111C24.8301 7.11111 27.2773 8.99257 28.1257 11.5961L33.4249 6.29697C31.0075 2.5107 26.7687 0 21.9433 0Z" fill="#2FBDFF"/>
<path d="M17.8557 26.5403C16.6365 27.7595 14.9829 28.4444 13.2587 28.4444C10.3724 28.4444 7.92538 26.5636 7.07667 23.9605L1.77771 29.2595C4.19525 33.0452 8.43383 35.5556 13.2587 35.5556C16.8689 35.5556 20.3312 34.1214 22.884 31.5686L45.4373 9.01523C46.6565 7.79604 48.3101 7.11111 50.0343 7.11111C53.6248 7.11111 56.5354 10.0217 56.5354 13.6122C56.5354 15.3364 55.8505 16.99 54.6313 18.2092L46.3001 26.5403C45.0809 27.7595 43.4274 28.4444 41.7032 28.4444C38.8166 28.4444 36.3695 26.5632 35.5209 23.9599L30.2219 29.259C32.6393 33.0451 36.878 35.5556 41.7032 35.5556C45.3134 35.5556 48.7756 34.1214 51.3284 31.5686L59.6595 23.2375C62.2123 20.6847 63.6465 17.2224 63.6465 13.6122C63.6465 6.09439 57.5522 0 50.0343 0C46.4241 0 42.9618 1.43413 40.4091 3.98692L17.8557 26.5403Z" fill="#2FBDFF"/>
</g>
<defs>
<clipPath id="clip0_0_7768">
<rect width="64" height="35.5556" fill="white"/>
</clipPath>
</defs>
</svg>
